<?xml version="1.0" encoding="utf-8"?>
<!-- Generator: Adobe Illustrator 19.0.0, SVG Export Plug-In . SVG Version: 6.00 Build 0)  -->
<svg version="1.1" id="图层_1" xmlns="http://www.w3.org/2000/svg" xmlns:xlink="http://www.w3.org/1999/xlink" x="0px" y="0px"
	 viewBox="0 0 1024 1024" style="enable-background:new 0 0 1024 1024;" xml:space="preserve">
<style type="text/css">
	.msg.st0{fill:#0160B7;}
</style>
<g id="XMLID_41_">
	<path id="XMLID_44_" class="msg st0" d="M651.7,427.5C534.5,310.2,335.4,315.2,294.6,323.7c-40.8,8.5-184.9,17.2-266.7,179.2
		c-81.8,162,34.7,271.8,72,309s2.1,115,2.1,115c74.9-48.9,241.4-23.2,241.4-23.2c256.9-0.9,352.6-158.8,352.6-158.8
		C755.6,636.2,764.9,534.9,651.7,427.5z M493.4,811.1c-14.9,6.1-30.3,10.9-46,14.2c-37.2,7.7-110.6,20-153.6,8.5
		c-68.9-3.2-114.8,9-114.8,9s11.9-26.8-47.5-82.2C72.1,705.1,46.4,616,84,525c55.3-99.5,151.8-128.7,198.3-135.4
		c6.4-0.9,12.6-2,19-3.3c42.9-8.5,221.8-32.7,342.1,124.9C643.3,511.2,781.5,692.1,493.4,811.1z"/>
	<path id="XMLID_33_" class="msg st0" d="M294.6,323.7c0,0,56.9-251.9,444.7-224.2c0,0,189.4,20,254.9,170.3s2.3,241.4,2.3,241.4
		s-29.9,55.4-67,82.6c-37,27.2-33.3,40.9-18.8,124.1c0,0-92.5-44.2-196.5-39c0,0,25.2-50,25.1-64.8c0,0,73.1,2.7,97.8,13.7
		c0,0-3-45.4,45.5-80s78.2-106.9,78.2-132.6s11.9-98-60.4-172.2s-236.5-92-344.9-61.8c0,0-138.5,35.9-193.2,138.9L294.6,323.7z"/>
	<circle id="XMLID_40_" class="msg st0" cx="205.4" cy="609.8" r="50.3"/>
	<circle id="XMLID_71_" class="msg st0" cx="359.8" cy="609.8" r="50.3"/>
	<circle id="XMLID_76_" class="msg st0" cx="526.1" cy="609.8" r="50.3"/>
</g>
</svg>
