<svg id="图层_1" data-name="图层 1" xmlns="http://www.w3.org/2000/svg" viewBox="0 0 1022.23 487.96"><title>通知公告</title><g id="_编组_" data-name="&lt;编组&gt;"><path id="_路径_" data-name="&lt;路径&gt;" d="M1.77,458,64.05,376l71.09,66.51-33.53,48.43S46.14,498.61,1.77,458Z" transform="translate(-1.77 -3.54)" fill="#0a0b06"/></g><g id="_编组_2" data-name="&lt;编组&gt;"><rect id="_矩形_" data-name="&lt;矩形&gt;" x="69.89" y="402.19" width="66.86" height="8.94" rx="0.5" ry="0.5" transform="translate(304.61 35.94) rotate(43.2)" fill="#fff"/></g><g id="_编组_3" data-name="&lt;编组&gt;"><rect id="_路径_2" data-name="&lt;路径&gt;" x="92.23" y="298.9" width="17.86" height="32.37" transform="translate(-118.28 62.29) rotate(-23.33)" fill="#8a4b3f"/></g><g id="_编组_4" data-name="&lt;编组&gt;"><path id="_路径_3" data-name="&lt;路径&gt;" d="M85.27,383.57s4-7.6,2.92-29.39,3.91-22.91,10.62-24,10.06-5,11.74-11.18c0,0,3.91-11.36,24.59-9.87s30.74,13.41,30.74,29.81,4.1,37.26-19.38,53.28-24.28,26.09-24.28,26.09Z" transform="translate(-1.77 -3.54)" fill="#d6cf87"/></g><g id="_编组_5" data-name="&lt;编组&gt;"><rect id="_路径_4" data-name="&lt;路径&gt;" x="18.44" y="263.96" width="71.81" height="52.78" rx="6.08" ry="6.08" transform="translate(-93.02 29.8) rotate(-18.93)" fill="#4a4645"/></g><g id="_编组_6" data-name="&lt;编组&gt;"><path id="_路径_5" data-name="&lt;路径&gt;" d="M96.87,303.66l-62,21.27A6.25,6.25,0,0,1,26.92,321l-4.64-13.53,67.93-23.3Z" transform="translate(-1.77 -3.54)" fill="#2c303b"/></g><g id="_编组_7" data-name="&lt;编组&gt;"><circle id="_路径_6" data-name="&lt;路径&gt;" cx="344.2" cy="188.07" r="34.02" fill="#8c6563"/></g><g id="_编组_8" data-name="&lt;编组&gt;"><path id="_路径_7" data-name="&lt;路径&gt;" d="M69.92,253.58S217.86,201,317.91,84.75c0,0,44.71,80.53,72.66,206.84,0,0-202.19-18.44-300.69,17.38C89.87,309,72.89,293.82,69.92,253.58Z" transform="translate(-1.77 -3.54)" fill="#f1ae22"/></g><g id="_编组_9" data-name="&lt;编组&gt;"><path id="_路径_8" data-name="&lt;路径&gt;" d="M72.2,270.42s131-38.85,260.41-155.56c0,0,41,93.53,49.49,141.65,0,0-239.78,13.46-299,43.53l-4-8.42A72.3,72.3,0,0,1,74.83,280Z" transform="translate(-1.77 -3.54)" fill="#df7012"/></g><g id="_编组_10" data-name="&lt;编组&gt;"><rect id="_矩形_2" data-name="&lt;矩形&gt;" x="406.93" y="95.46" width="7.99" height="53.67" rx="1.46" ry="1.46" transform="translate(10.28 -38.45) rotate(4.94)" fill="#f8b529"/></g><g id="_编组_11" data-name="&lt;编组&gt;"><rect id="_矩形_3" data-name="&lt;矩形&gt;" x="433.6" y="105.96" width="7.99" height="53.67" rx="1.46" ry="1.46" transform="translate(201.86 -263.66) rotate(42.35)" fill="#f8b529"/></g><g id="_编组_12" data-name="&lt;编组&gt;"><rect id="_矩形_4" data-name="&lt;矩形&gt;" x="448.91" y="129.56" width="7.99" height="53.67" rx="1.46" ry="1.46" transform="translate(468.63 -325.97) rotate(73.04)" fill="#f8b529"/></g><g id="_编组_13" data-name="&lt;编组&gt;"><rect id="_矩形_5" data-name="&lt;矩形&gt;" x="450.5" y="156.9" width="7.99" height="53.67" rx="1.46" ry="1.46" transform="translate(704.29 -240.57) rotate(98.86)" fill="#f8b529"/></g><g id="_编组_14" data-name="&lt;编组&gt;"><rect id="_矩形_6" data-name="&lt;矩形&gt;" x="439.06" y="184.21" width="7.99" height="53.67" rx="1.46" ry="1.46" transform="translate(894.41 19.06) rotate(131.95)" fill="#f8b529"/></g><circle cx="627.24" cy="92.69" r="92.69" fill="#26a0a6"/><circle cx="627.24" cy="92.69" r="69.82" fill="#fff"/><rect x="624.98" y="42.38" width="8.21" height="44.69" rx="4.1" ry="4.1" fill="#2c3d5a"/><rect x="653.32" y="66.74" width="6.38" height="45.32" rx="3.19" ry="3.19" transform="translate(521.19 -563.11) rotate(70.62)" fill="#f79206"/><circle cx="628.06" cy="95.51" r="13.34" fill="#2c3d5a"/><rect x="611.79" y="101.1" width="6.38" height="45.32" rx="3.19" ry="3.19" transform="translate(198.28 -350.26) rotate(37.21)" fill="#2c3d5a"/><ellipse cx="628.57" cy="28.56" rx="4.62" ry="2.12" fill="#2c3d5a"/><ellipse cx="628.57" cy="156.82" rx="4.62" ry="2.12" fill="#2c3d5a"/><ellipse cx="563.11" cy="91.83" rx="2.12" ry="4.62" fill="#2c3d5a"/><ellipse cx="691.37" cy="91.83" rx="2.12" ry="4.62" fill="#2c3d5a"/><path d="M815.72,207.45s-8.21,17.63-15.73,18.19c0,0,21.21-.68,31.47-18.19,0,0,97.14-19.56,88.93-88,0,0-3.19-31-43.55-34.89S774,108.53,766.47,161.2C766.47,161.2,759.63,199.31,815.72,207.45Z" transform="translate(-1.77 -3.54)" fill="#f8a17c"/><circle cx="803.58" cy="157.31" r="11.97" fill="#fff"/><circle cx="840.65" cy="139.17" r="11.97" fill="#fff"/><circle cx="879.98" cy="125.14" r="11.97" fill="#fff"/><path d="M878.79,275.39h130.57a12.87,12.87,0,0,1,12.87,12.87v65a17.17,17.17,0,0,1-17.17,17.17H882.43a17.15,17.15,0,0,1-17.15-17.15V288.9A13.52,13.52,0,0,1,878.79,275.39Z" fill="#2997a4"/><path d="M1024,345.28,945.52,301.5,867,345.28v11A17.75,17.75,0,0,0,884.79,374H1006.7a17.3,17.3,0,0,0,17.3-17.3Z" transform="translate(-1.77 -3.54)" fill="#107078"/><path d="M1023.39,291.63,961,327.4a34.23,34.23,0,0,1-10.09,3.84,29.85,29.85,0,0,1-14.06-.25,25.44,25.44,0,0,1-6.4-2.66l-62.8-36.7Z" transform="translate(-1.77 -3.54)" fill="#2da3a9"/><path d="M882.91,278.93h127.77a12.7,12.7,0,0,1,12.7,12.7H867.64a12.7,12.7,0,0,1,12.7-12.7Z" transform="translate(-1.77 -3.54)" fill="#2da3a9"/><path d="M572.2,364.2c10,28.41,39.7,43.82,66.24,34.44,17.95-6.35,29.84-22.43,32.57-40.95l22.76-8A8.52,8.52,0,0,0,699,338.76l-12.19-34.48a8.52,8.52,0,0,0-10.88-5.19l-22.76,8c-13.77-12.69-33.13-17.72-51.07-11.37C575.52,305.16,562.15,335.79,572.2,364.2Z" transform="translate(-1.77 -3.54)" fill="#f05b3e"/><path d="M690.17,302.75l12.4,35.06a4.3,4.3,0,0,0,8.11-2.87l-12.4-35.06a4.3,4.3,0,0,0-8.11,2.87Z" transform="translate(-1.77 -3.54)" fill="#f05b3e"/><rect x="539.07" y="364.15" width="24.48" height="14.88" rx="7.44" ry="7.44" transform="translate(-94.11 201.53) rotate(-19.48)" fill="#f05b3e"/><path d="M573.68,294l-7.3-6.24a7.44,7.44,0,1,0-9.67,11.31l7.3,6.24A7.44,7.44,0,1,0,573.68,294Z" transform="translate(-1.77 -3.54)" fill="#f05b3e"/><path d="M615.14,427.63l2.53-9.27a7.44,7.44,0,0,0-14.35-3.91l-2.53,9.27a7.44,7.44,0,1,0,14.35,3.91Z" transform="translate(-1.77 -3.54)" fill="#f05b3e"/><path d="M672.13,399.1l7.79,5.62a7.44,7.44,0,0,0,8.7-12.06L680.83,387a7.44,7.44,0,0,0-8.7,12.06Z" transform="translate(-1.77 -3.54)" fill="#f05b3e"/><path d="M630.43,264.77,627.9,274a7.44,7.44,0,0,0,14.35,3.92l2.53-9.27a7.44,7.44,0,1,0-14.35-3.91Z" transform="translate(-1.77 -3.54)" fill="#f05b3e"/></svg>