<svg id="图层_1" data-name="图层 1" xmlns="http://www.w3.org/2000/svg" viewBox="0 0 113.61 112.45"><defs><style>.cls-1{fill:#6480a8;}.cls-2{fill:#0a0b06;}.cls-3{fill:#fff;}.cls-4{fill:#8b4b3f;}.cls-5{fill:#d7d088;}.cls-6{fill:#4a4645;}.cls-7{fill:#2c303b;}.cls-8{fill:#8d6563;}.cls-9{fill:#db7245;}.cls-10{fill:#d79477;}</style></defs><title>通知22</title><g id="_编组_" data-name="&lt;编组&gt;"><g id="_编组_2" data-name="&lt;编组&gt;"><rect id="_路径_" data-name="&lt;路径&gt;" class="cls-1" width="113.61" height="112.34" rx="23.87" ry="23.87"/></g><g id="_编组_3" data-name="&lt;编组&gt;"><path id="_路径_2" data-name="&lt;路径&gt;" class="cls-2" d="M296.24,480.4,308,464.89l13.43,12.56-6.34,9.15A25.08,25.08,0,0,1,296.24,480.4Z" transform="translate(-288.39 -374.27)"/></g><g id="_编组_4" data-name="&lt;编组&gt;"><rect id="_矩形_" data-name="&lt;矩形&gt;" class="cls-3" x="309.11" y="469.85" width="12.63" height="1.69" rx="0.5" ry="0.5" transform="translate(119.3 -462.62) rotate(43.2)"/></g><g id="_编组_5" data-name="&lt;编组&gt;"><rect id="_路径_3" data-name="&lt;路径&gt;" class="cls-4" x="313.33" y="450.33" width="3.37" height="6.12" transform="translate(-442.2 -212.43) rotate(-23.33)"/></g><g id="_编组_6" data-name="&lt;编组&gt;"><path id="_路径_4" data-name="&lt;路径&gt;" class="cls-5" d="M312,466.33s.76-1.43.55-5.55.74-4.33,2-4.54a2.58,2.58,0,0,0,2.22-2.11s.74-2.15,4.65-1.87,5.81,2.53,5.81,5.63.77,7-3.66,10.07-4.59,4.93-4.59,4.93Z" transform="translate(-288.39 -374.27)"/></g><g id="_编组_7" data-name="&lt;编组&gt;"><rect id="_路径_5" data-name="&lt;路径&gt;" class="cls-6" x="299.39" y="443.73" width="13.57" height="9.97" rx="1.15" ry="1.15" transform="translate(-417.41 -250.66) rotate(-18.93)"/></g><g id="_编组_8" data-name="&lt;编组&gt;"><path id="_路径_6" data-name="&lt;路径&gt;" class="cls-7" d="M314.21,451.23l-11.72,4a1.18,1.18,0,0,1-1.5-.73l-.88-2.56,12.83-4.4Z" transform="translate(-288.39 -374.27)"/></g><g id="_编组_9" data-name="&lt;编组&gt;"><circle id="_路径_7" data-name="&lt;路径&gt;" class="cls-8" cx="72.87" cy="55.8" r="6.43"/></g><g id="_编组_10" data-name="&lt;编组&gt;"><path id="_路径_8" data-name="&lt;路径&gt;" class="cls-9" d="M309.12,441.77s27.95-9.92,46.85-31.89c0,0,8.45,15.21,13.73,39.07,0,0-38.2-3.48-56.8,3.28C312.89,452.23,309.68,449.37,309.12,441.77Z" transform="translate(-288.39 -374.27)"/></g><g id="_编组_11" data-name="&lt;编组&gt;"><path id="_路径_9" data-name="&lt;路径&gt;" class="cls-10" d="M309.55,445s24.75-7.34,49.2-29.39c0,0,7.75,17.67,9.35,26.76,0,0-45.3,2.54-56.49,8.22l-.75-1.59a13.66,13.66,0,0,1-.81-2.19Z" transform="translate(-288.39 -374.27)"/></g><g id="_编组_12" data-name="&lt;编组&gt;"><rect id="_矩形_2" data-name="&lt;矩形&gt;" class="cls-3" x="369.09" y="392.9" width="3.38" height="22.7" rx="1.69" ry="1.69" transform="translate(-252.23 -404.67) rotate(4.94)"/></g><g id="_编组_13" data-name="&lt;编组&gt;"><rect id="_矩形_3" data-name="&lt;矩形&gt;" class="cls-3" x="380.37" y="397.34" width="3.38" height="22.7" rx="1.69" ry="1.69" transform="translate(86.59 -524.99) rotate(42.35)"/></g><g id="_编组_14" data-name="&lt;编组&gt;"><rect id="_矩形_4" data-name="&lt;矩形&gt;" class="cls-3" x="386.85" y="407.33" width="3.38" height="22.7" rx="1.69" ry="1.69" transform="matrix(0.29, 0.96, -0.96, 0.29, 387.28, -449.35)"/></g><g id="_编组_15" data-name="&lt;编组&gt;"><rect id="_矩形_5" data-name="&lt;矩形&gt;" class="cls-3" x="387.52" y="418.89" width="3.38" height="22.7" rx="1.69" ry="1.69" transform="translate(585.89 -262.31) rotate(98.86)"/></g><g id="_编组_16" data-name="&lt;编组&gt;"><rect id="_矩形_6" data-name="&lt;矩形&gt;" class="cls-3" x="382.68" y="430.44" width="3.38" height="22.7" rx="1.69" ry="1.69" transform="translate(681.5 76.97) rotate(131.95)"/></g><g id="_编组_17" data-name="&lt;编组&gt;"><path id="_复合路径_" data-name="&lt;复合路径&gt;" class="cls-3" d="M324,398h-6a29.25,29.25,0,0,1-1,3.28h7.75v10h-1.42v-1.8h-5.08v1.86h-1.45v-9.6a18.11,18.11,0,0,1-3.13,5.19l-.84-1.31a18.21,18.21,0,0,0,3.74-7.66h-2.47V396.6h2.79q.32-1.57.55-3.66h-4v-1.45h4.18q.15-1.83.17-3.8h-3.48v-1.36H324v5.16h1.71v1.45H324Zm-5.75,10.13h5.08v-5.4h-5.08Zm.67-15.17q-.2,1.74-.58,3.66h4.21v-3.66Zm.32-5.25q0,2-.17,3.8h3.48v-3.8ZM332,392.27h-5.37v-1.48h6.73a37.47,37.47,0,0,0,2.32-5.83l1.48.52a33.87,33.87,0,0,1-2.18,5.31h3.57v1.48h-5V397h4.38v1.48h-4.38v4.67h5.66v1.54h-5.66v6.82H332v-6.82h-5.6v-1.54H332v-4.67h-4.67V397H332Zm-3-7.11a41,41,0,0,1,2.61,4.73l-1.36.67a33.59,33.59,0,0,0-2.58-4.76Z" transform="translate(-288.39 -374.27)"/></g></g></svg>