<svg id="图层_1" data-name="图层 1" xmlns="http://www.w3.org/2000/svg" viewBox="0 0 1024 1024"><title>人</title><rect width="1024" height="1024" rx="2.66" ry="2.66" fill="#e6e6e6"/><path d="M813.35,835.4H209.9l.24-15.5c.54-35.24,22.43-108.46,101.44-133.32,66.55-20.94,101.32-39.46,106.17-56.57V573.78c-12.9-9.69-39.05-33-48.63-68-11.78-6.14-25.05-20.5-28.27-48.92-.46-5.31-1.66-26.92,9.08-41C342.87,386,327.09,293.38,386.2,235c1.88-2.09,60.26-64.51,163.62-41.23,3.34,1,23.69,7.25,37.07,21.92,28.32,5.23,75.5,30.08,88.65,96.2.36,1.31,11.75,47.52-1.37,102,7.77,9.76,15.67,28.79,5.64,62.42-1.09,3-7.86,20.2-23.69,29.22-4.28,14.68-16.75,45.21-50.56,70.4V627c2.39,5.3,11.21,21.15,33.64,27.33,4.18,1.12,105,28.5,140.14,70.38,35.83,42.65,34.58,93.75,34.51,95.9ZM242.66,804.86H782.13c-2.21-15.15-8.47-39.41-26.18-60.5-24.07-28.65-98.22-53.42-124.76-60.55-43.2-11.89-55-47.81-55.47-49.34l-.7-4.59v-70l6.8-4.53c40.31-26.87,46.08-62.58,46.12-62.94l1.43-9.58,9.29-2.79c6.47-1.94,11.12-10.59,12.26-13.48,6.37-21.48,1.57-32.35-1.92-34.95l-10.66-5.88,4.13-11.24c14.4-50.07,3.41-95.41,3.31-95.87-13.42-67.38-66.1-73.19-68.34-73.41l-7.17-.69-4.15-6c-5.53-8.2-19.52-13.88-24-15.21C456.87,204,408.7,255.61,408.23,256.13c-57.05,56.4-26.9,159.13-26.59,160.16l3.61,11.94-11,5.93c-1.83,1.68-3.7,11.15-3,19.62,2.55,22.54,13,25.28,13.49,25.39l11.17,1.37,1.28,11c6.87,38.08,43.45,61.06,43.81,61.29l7.25,4.47,0,76-.3,1.48c-6.29,31.41-42,54.11-127.25,80.95C264.08,733.54,247.49,780.33,242.66,804.86Z" transform="translate(-3.82)" fill="#fff"/></svg>