<svg id="图层_1" data-name="图层 1" xmlns="http://www.w3.org/2000/svg" viewBox="0 0 918.12 1024"><title>人</title><path d="M512,1024c-274.57,0-459.06-82.79-459.06-206,0-96.6,137.7-176.65,343-199.64,5.55-2.21,11.74-6.16,13.14-8.56h0c-.56,0-3.82-8.64-25.4-23.66-37.14-25.85-69.16-60.85-92.58-101.27-48-82.88-106-275.16,17.41-411C318.38,60.93,372.13,0,512,0c97.94,0,175.09,33.87,223.11,97.95,67.1,89.58,62.87,217.62,36.51,307.58C752,472.72,709.73,534,649.56,582.79c-20.48,16.59-24.06,26.94-23.71,29.25.29,1.89,4.21,5.06,7.26,6.89,202.34,23.73,338,103.46,338,199.07C971.06,935.43,773.7,1024,512,1024Zm0-970.62c-121.92,0-159.28,50.41-160.8,52.56l-2.36,3c-103.67,113-52.88,277.84-11.51,349.2,19.52,33.7,46.08,62.81,76.86,84.21,13.24,9.22,53.55,37.25,47.54,76.22-5.59,36.1-47.12,50-51.86,51.49l-5,1.05C234.66,689.6,106.32,752.76,106.32,818c0,74,142.18,152.62,405.68,152.62,239.08,0,405.68-80.43,405.68-152.62,0-64.6-126.86-127.6-295.09-146.54l-6.8-1.69c-3.84-1.51-37.47-15.69-42.7-49.59-4-26,10.4-52.58,42.85-78.86,51.71-41.92,87.85-94.06,104.46-150.8,22.71-77.57,27.27-186.74-28-260.57C654.31,79.14,593.63,53.38,512,53.38Z" transform="translate(-52.94)" fill="#46b0f4"/></svg>